<svg xmlns="http://www.w3.org/2000/svg" width="34.875" height="34.875" viewBox="0 0 34.875 34.875">
  <path id="Icon_awesome-angry" data-name="Icon awesome-angry" fill="#fcba03" d="M17.438.563A17.438,17.438,0,1,0,34.875,18,17.434,17.434,0,0,0,17.438.563ZM9.563,16.875A2.227,2.227,0,0,1,10.3,15.23l-2.18-.654a1.123,1.123,0,0,1,.647-2.152l5.625,1.688a1.124,1.124,0,0,1-.323,2.2c-.035,0-.077-.014-.12-.014a2.273,2.273,0,0,1,.12.577,2.254,2.254,0,0,1-4.507,0ZM21.375,27.717a5.29,5.29,0,0,0-7.882,0,1.126,1.126,0,0,1-1.73-1.441,7.371,7.371,0,0,1,11.334,0A1.123,1.123,0,0,1,21.375,27.717Zm5.386-13.141-2.18.654a2.244,2.244,0,1,1-3.762,1.645,1.958,1.958,0,0,1,.12-.577.693.693,0,0,1-.12.014,1.124,1.124,0,0,1-.323-2.2l5.625-1.687a1.122,1.122,0,1,1,.64,2.152Z" transform="translate(0 -0.563)"/>
</svg>
