<svg xmlns="http://www.w3.org/2000/svg" width="30.368" height="31.499" viewBox="0 0 30.368 31.499">
  <path id="Icon_ionic-ios-bookmarks" data-name="Icon ionic-ios-bookmarks" fill="#707070" d="M29.25,2.25v8.993l-1.61-1.02L27,9.773l-.64.45-1.61,1.02V2.25H21.839a2.9,2.9,0,0,0-2.855,2.911V27.183a1.008,1.008,0,0,1-.935,1.013.986.986,0,0,1-1.034-.984V5.161A2.9,2.9,0,0,0,14.161,2.25H6.687A3.886,3.886,0,0,0,2.813,6.124V26.5a3.886,3.886,0,0,0,3.874,3.874l7.594-.007a4.853,4.853,0,0,1,.858.1,2.316,2.316,0,0,1,1.87,2.264,1,1,0,0,0,.872,1.013.985.985,0,0,0,1.1-.991,2.332,2.332,0,0,1,1.891-2.285,4.7,4.7,0,0,1,.844-.091l7.594.007a3.886,3.886,0,0,0,3.874-3.874V6.124A3.93,3.93,0,0,0,29.25,2.25Z" transform="translate(-2.813 -2.25)"/>
</svg>
