<svg xmlns="http://www.w3.org/2000/svg" width="29.25" height="29.25" viewBox="0 0 29.25 29.25">
  <path id="Icon_ionic-ios-sad" data-name="Icon ionic-ios-sad" fill="#fcba03" d="M18,3.375A14.625,14.625,0,1,0,32.625,18,14.623,14.623,0,0,0,18,3.375ZM12.8,14.07a1.69,1.69,0,1,1-1.547,1.547A1.691,1.691,0,0,1,12.8,14.07Zm-.049,10.68a1.127,1.127,0,0,1-1.034-1.575,6.844,6.844,0,0,1,12.558,0,1.124,1.124,0,0,1-1.034,1.575,50.671,50.671,0,0,0-5.14-.281C15.4,24.469,12.755,24.75,12.755,24.75ZM23.2,17.43a1.69,1.69,0,1,1,1.547-1.547A1.691,1.691,0,0,1,23.2,17.43Z" transform="translate(-3.375 -3.375)"/>
</svg>
