<svg id="Layer_1" data-name="Layer 1" xmlns="http://www.w3.org/2000/svg" viewBox="0 0 60 60"><defs><style>.cls-1{fill:#696969;}.cls-2{fill:#fff;fill-rule:evenodd;}</style></defs><rect class="cls-1" width="60" height="60" rx="8"/><path class="cls-2" d="M27.82,36.83c0,.1-.06.18-.08.27-1.26,4.95-1.4,6-2.7,8.35A26.11,26.11,0,0,1,23,48.57c-.09.11-.17.25-.34.22s-.21-.21-.23-.37a27.42,27.42,0,0,1-.27-4.53c.07-2,.31-2.66,2.86-13.38a.7.7,0,0,0-.06-.45,7.56,7.56,0,0,1-.2-5c1.16-3.66,5.31-3.94,6-.92.45,1.87-.73,4.31-1.64,7.92-.75,3,2.75,5.1,5.75,2.92,2.77-2,3.84-6.81,3.63-10.22-.4-6.79-7.85-8.26-12.57-6.07-5.42,2.51-6.65,9.22-4.2,12.29.31.39.55.63.44,1-.15.62-.29,1.24-.46,1.85a.66.66,0,0,1-1,.43,5.55,5.55,0,0,1-2.26-1.69c-2.08-2.57-2.67-7.66.07-12,3-4.77,8.71-6.7,13.87-6.12,6.17.71,10.08,4.92,10.81,9.71.33,2.18.09,7.55-3,11.35-3.52,4.36-9.22,4.65-11.86,2A8.35,8.35,0,0,1,27.82,36.83Z"/></svg>